<svg width="3" height="5" viewBox="0 0 3 5" fill="none" xmlns="http://www.w3.org/2000/svg">
<path d="M1.79044 0.507987C1.72087 0.647134 1.65312 0.782791 1.58175 0.91905C1.54061 0.997579 1.54727 1.09635 1.50428 1.17517C1.45883 1.25851 1.39585 1.28179 1.39203 1.39652C1.38968 1.46694 1.39203 1.53788 1.39203 1.60837C1.39203 1.97166 1.42425 2.34113 1.25132 2.65816C1.20867 2.73634 1.20112 2.84815 1.17701 2.93326C1.15543 3.00941 1.08718 3.08993 1.07899 3.16092C1.06604 3.27315 0.938774 3.44513 0.89559 3.55618C0.853493 3.66443 0.868357 3.67984 0.794406 3.77119C0.720617 3.86234 0.641871 3.95734 0.573064 4.05261C0.491123 4.16607 0.509824 4.35737 0.509824 4.49213" stroke="white" stroke-linecap="round"/>
</svg>
