<svg width="32" height="36" viewBox="0 0 32 36" fill="none" xmlns="http://www.w3.org/2000/svg">
<path d="M3.69829 28.6346L3.69806 28.6344C2.82157 27.9809 2.01751 26.9487 1.43221 25.7821C0.846858 24.6154 0.502152 23.3578 0.502152 22.2746V9.82126C0.502152 7.45189 2.26454 4.89534 4.49376 4.06515L4.49472 4.06479L12.8468 0.934866C12.8469 0.934835 12.8469 0.934805 12.847 0.934774C13.6037 0.652003 14.6075 0.502152 15.6337 0.502152C16.6598 0.502152 17.6636 0.652003 18.4203 0.934774C18.4204 0.934805 18.4205 0.934835 18.4206 0.934866L26.7726 4.06479L26.7736 4.06515C29.0028 4.89534 30.7652 7.45189 30.7652 9.82126V22.2579C30.7652 23.3497 30.4203 24.6073 29.8353 25.7713C29.2503 26.9354 28.4463 27.9637 27.5693 28.6176L27.5691 28.6178L20.3715 33.9908L20.3715 33.9908L20.3653 33.9956C19.0771 34.9889 17.3818 35.498 15.6504 35.498C13.9204 35.498 12.2209 34.9895 10.8949 34.0069C10.8947 34.0068 10.8946 34.0067 10.8944 34.0066L3.69829 28.6346ZM13.3826 2.35414L13.3819 2.35439L5.02943 5.48447L5.02872 5.48474C4.19758 5.79764 3.45315 6.46277 2.91995 7.23422C2.38657 8.00591 2.02535 8.94067 2.02535 9.838V22.2746C2.02535 23.1729 2.33727 24.2056 2.79624 25.1213C3.25509 26.0368 3.89331 26.9001 4.60392 27.4307L4.60396 27.4307L11.8011 32.8035C12.8677 33.6011 14.2728 33.9832 15.6525 33.9832C17.0324 33.9832 18.4407 33.6011 19.5148 32.8048L19.5161 32.8038L26.7136 27.4307L26.7145 27.4301C27.4323 26.8917 28.0705 26.0292 28.5278 25.1146C28.9851 24.2 29.2922 23.1719 29.2922 22.2746V9.82126C29.2922 8.93128 28.9302 8.00064 28.3976 7.23003C27.8648 6.45918 27.1219 5.79138 26.2937 5.46984L26.2937 5.46981L26.2881 5.46773L17.9357 2.33765L17.9357 2.33756L17.9266 2.33434C17.2857 2.10814 16.454 2.00433 15.6511 2.00652C14.8491 2.0087 14.0186 2.11681 13.3826 2.35414Z" fill="#FAFAFA" stroke="#FAFAFA"/>
<path d="M13.0525 19.0478L13.4075 19.4029L13.7626 19.0478L20.073 12.7374C20.3623 12.4481 20.8478 12.4481 21.1371 12.7374C21.4264 13.0268 21.4264 13.5123 21.1371 13.8016L13.9396 20.9991C13.7876 21.151 13.5996 21.2202 13.4075 21.2202C13.2155 21.2202 13.0274 21.151 12.8755 20.9991L10.1806 18.3042C9.89128 18.0149 9.89127 17.5294 10.1806 17.2401C10.4699 16.9508 10.9554 16.9508 11.2447 17.2401L13.0525 19.0478Z" fill="#FAFAFA" stroke="#FAFAFA"/>
</svg>
