<svg width="40" height="40" viewBox="0 0 40 40" fill="none" xmlns="http://www.w3.org/2000/svg">
<path d="M20.4278 18.1456V18.6456L20.9278 18.6456C21.5916 18.6457 22.239 18.8514 22.781 19.2346C23.3229 19.6178 23.7327 20.1595 23.954 20.7851C23.9727 20.8381 23.9808 20.8941 23.9778 20.9502C23.9748 21.0062 23.9608 21.0611 23.9366 21.1117C23.9124 21.1624 23.8784 21.2077 23.8367 21.2452C23.795 21.2828 23.7463 21.3117 23.6933 21.3304C23.6404 21.3491 23.5844 21.3571 23.5283 21.3542C23.4723 21.3512 23.4174 21.3372 23.3667 21.313C23.2645 21.2641 23.1858 21.1766 23.1481 21.0697L23.148 21.0695C22.9856 20.6104 22.6849 20.213 22.2873 19.9319C21.8896 19.6509 21.4146 19.5 20.9277 19.5002L20.4278 19.5003V20.0002V23.7092V24.2092H20.9278C21.7789 24.2092 22.5952 24.5473 23.197 25.1491C23.7988 25.7509 24.1369 26.5672 24.1369 27.4183C24.1369 28.2694 23.7988 29.0856 23.197 29.6874C22.5952 30.2892 21.7789 30.6273 20.9278 30.6273H20.4278V31.1273V31.5546H19.5733V31.1273V30.6273L19.0733 30.6273C18.4096 30.6273 17.7621 30.4215 17.2202 30.0383C16.6782 29.6551 16.2684 29.1134 16.0471 28.4876L16.0472 28.4875L16.0422 28.4744C16.0216 28.4211 16.012 28.3642 16.0138 28.3071C16.0156 28.25 16.0289 28.1939 16.0528 28.142C16.0767 28.0901 16.1107 28.0435 16.1529 28.005L15.817 27.6367L16.1529 28.005C16.1952 27.9665 16.2447 27.9369 16.2985 27.9179C16.3524 27.8988 16.4095 27.8908 16.4665 27.8942C16.5236 27.8977 16.5793 27.9125 16.6305 27.9379C16.6817 27.9632 16.7273 27.9986 16.7646 28.0419C16.8019 28.0852 16.8301 28.1355 16.8476 28.1899L16.8499 28.1969L16.8523 28.2039C17.1768 29.1186 18.0484 29.7728 19.0733 29.7728H19.5733V29.2728V25.5637V25.0637H19.0733C18.2222 25.0637 17.406 24.7256 16.8042 24.1238C16.2024 23.522 15.8643 22.7058 15.8643 21.8547C15.8643 21.0036 16.2024 20.1874 16.8042 19.5856C17.406 18.9837 18.2222 18.6456 19.0733 18.6456H19.5733V18.1456V17.7184H20.4278V18.1456ZM19.5733 20.0002V19.5002H19.0733C18.4488 19.5002 17.85 19.7482 17.4084 20.1898C16.9668 20.6314 16.7188 21.2302 16.7188 21.8547C16.7188 22.4792 16.9668 23.078 17.4084 23.5196C17.85 23.9612 18.4488 24.2092 19.0733 24.2092H19.5733V23.7092V20.0002ZM20.4278 29.2728V29.7728H20.9278C21.5523 29.7728 22.1512 29.5247 22.5927 29.0832C23.0343 28.6416 23.2824 28.0427 23.2824 27.4183C23.2824 26.7938 23.0343 26.1949 22.5927 25.7534C22.1512 25.3118 21.5523 25.0637 20.9278 25.0637H20.4278V25.5637V29.2728Z" fill="#FAFAFA" stroke="#FAFAFA"/>
<path d="M12.7057 12.5777L13.0219 12.6998C17.3707 14.3798 22.6083 14.3797 26.957 12.698L27.2695 12.5772L27.5001 12.8203C29.3981 14.8211 30.9858 17.0948 32.2105 19.5658L32.2115 19.5677C33.4873 22.1703 34.2037 24.8133 34.0867 27.1301L34.0867 27.1301C33.9723 29.3912 33.0716 31.3572 31.0218 32.806L31.0218 32.806C28.9129 34.296 25.4467 35.3336 20.0354 35.3336C14.6198 35.3336 11.1397 34.3141 9.01316 32.8421L9.01293 32.842C6.94943 31.412 6.03763 29.472 5.91014 27.2374L12.7057 12.5777ZM12.7057 12.5777L12.4752 12.8262M12.7057 12.5777L12.4752 12.8262M12.4752 12.8262C10.6573 14.7856 8.96566 17.1897 7.75095 19.6929L7.75091 19.6929M12.4752 12.8262L7.75091 19.6929M7.75091 19.6929C6.48037 22.3123 5.7784 24.9432 5.91013 27.2372L7.75091 19.6929ZM29.8428 6.18136C30.2832 6.39921 30.6642 6.60759 30.9775 6.79428L27.8457 11.3725L27.6141 11.7111L27.901 12.0044C29.8394 13.9861 31.6697 16.5163 32.9805 19.1919C34.2935 21.8721 35.0679 24.6624 34.941 27.1735C34.8151 29.6637 33.8054 31.8863 31.5163 33.5035C29.2051 35.1363 25.5382 36.1881 20.0364 36.1881C14.5332 36.1881 10.8544 35.1551 8.52802 33.5441C6.22448 31.9489 5.1991 29.7543 5.05803 27.2856C4.91571 24.7951 5.67576 22.0153 6.98354 19.3201C8.2889 16.6299 10.1229 14.0598 12.0812 11.9993L12.3589 11.7071L12.1323 11.3738L9.02247 6.79791C9.17984 6.70521 9.3536 6.60746 9.54301 6.50656L9.54302 6.50656L9.54474 6.50564C9.73531 6.40316 9.94085 6.29767 10.1614 6.19013L10.3573 6.09458C12.6034 5.02401 16.1645 3.80945 20.0364 3.80945C23.9384 3.80945 27.4975 5.04283 29.7165 6.12005C29.7165 6.12005 29.7165 6.12005 29.7165 6.12006L29.8412 6.18057C29.8417 6.18083 29.8422 6.1811 29.8428 6.18136ZM26.2245 12.0592L26.3779 12.0047L26.4698 11.8703L29.2117 7.86178L29.7968 7.00635L28.7631 7.08078C26.1696 7.26751 23.1003 7.87479 20.1554 8.7274C18.1714 9.30056 15.9387 9.21929 13.8339 8.83106C13.3046 8.73294 12.779 8.61613 12.258 8.48086L10.9726 8.14712L11.7188 9.24574L13.4991 11.8671L13.591 12.0024L13.745 12.0572C17.6692 13.4543 22.2996 13.4542 26.2245 12.0592ZM11.58 6.48035L10.3004 7.02347L11.6328 7.41985C12.3897 7.64501 13.1821 7.84132 13.9877 7.99046L13.9881 7.99055C16.023 8.36535 18.1079 8.42979 19.9168 7.90582L19.9175 7.90561C21.8859 7.33216 23.888 6.88116 25.9122 6.5552L25.9768 5.58279C24.2353 5.05845 22.1905 4.66397 20.0354 4.66397C16.7536 4.66397 13.7063 5.57787 11.58 6.48035Z" fill="#FAFAFA" stroke="#FAFAFA"/>
</svg>
