<svg width="3" height="4" viewBox="0 0 3 4" fill="none" xmlns="http://www.w3.org/2000/svg">
<path d="M2.07769 0.62401C2.07537 0.678561 2.05327 0.731865 2.04148 0.784955C2.0352 0.813185 2.03129 0.842766 2.02136 0.870026C2.01352 0.891531 1.99997 0.910383 1.99607 0.933254C1.99166 0.959052 1.97885 0.978142 1.97308 1.00281C1.96756 1.02638 1.96975 1.0501 1.9679 1.07408C1.95995 1.17742 1.96388 1.28192 1.96388 1.38563C1.96388 1.40792 1.96691 1.43324 1.96273 1.45518C1.95707 1.48486 1.94278 1.50911 1.93284 1.53737C1.9129 1.59405 1.85839 1.64219 1.84604 1.70119C1.82631 1.79548 1.78702 1.88627 1.7443 1.97422C1.71689 2.03067 1.70518 2.09655 1.67418 2.15126C1.63576 2.21906 1.60599 2.30211 1.54801 2.35704C1.51947 2.38408 1.50438 2.43031 1.47903 2.46051C1.4562 2.48771 1.4269 2.50836 1.40344 2.53495C1.39363 2.54607 1.38734 2.55986 1.37729 2.57145C1.368 2.58217 1.36526 2.59887 1.36407 2.61254C1.36257 2.62982 1.35395 2.63554 1.34913 2.65163C1.33733 2.69095 1.34008 2.72651 1.31521 2.76286C1.29618 2.79067 1.28214 2.82998 1.25773 2.8531C1.22606 2.8831 1.21515 2.93102 1.18387 2.96404C1.16287 2.98621 1.15726 3.01843 1.13875 3.04279C1.11463 3.07452 1.10436 3.1124 1.07897 3.14395C1.03908 3.1935 0.993517 3.24447 0.943601 3.2842C0.932871 3.29274 0.910633 3.31927 0.895605 3.31927C0.864961 3.31927 0.841932 3.24702 0.833526 3.22557C0.814037 3.17584 0.808462 3.12253 0.7999 3.07009C0.796105 3.04685 0.776374 3.00136 0.797601 2.98013C0.824125 2.95361 0.843223 2.92288 0.867439 2.89564C0.889655 2.87064 0.922158 2.85802 0.942739 2.83269C0.967522 2.80219 0.975525 2.77086 0.993321 2.73527C1.00337 2.71518 1.00267 2.69247 1.01229 2.67204C1.0229 2.64949 1.03837 2.62186 1.04304 2.59731C1.04711 2.57597 1.06015 2.54503 1.07121 2.52661C1.09063 2.49424 1.11292 2.46331 1.12984 2.42947C1.13682 2.4155 1.13389 2.40156 1.13731 2.38693C1.14167 2.3683 1.15396 2.35205 1.15915 2.3329C1.1808 2.25306 1.23117 2.18618 1.254 2.10758C1.26296 2.07671 1.2816 2.05262 1.29021 2.01963C1.29571 1.99853 1.31091 1.98375 1.31607 1.96215C1.31928 1.94874 1.324 1.93266 1.32987 1.92019C1.34292 1.89246 1.34152 1.8596 1.34711 1.82937C1.35177 1.80422 1.36085 1.77929 1.36781 1.75465C1.37518 1.72855 1.37538 1.70166 1.38218 1.67533C1.38975 1.646 1.38634 1.61477 1.3908 1.58508C1.3945 1.56038 1.40566 1.51687 1.42069 1.49714C1.44841 1.46076 1.44868 1.39372 1.46495 1.35114C1.48174 1.30719 1.48478 1.25908 1.50231 1.21491C1.51233 1.18966 1.51378 1.16303 1.52415 1.13788C1.53355 1.11511 1.54739 1.08168 1.54485 1.05626C1.54466 1.05437 1.50875 1.10856 1.50174 1.11949C1.49177 1.13501 1.48868 1.15365 1.48047 1.17007C1.47174 1.18753 1.45904 1.20256 1.44943 1.21951C1.42286 1.26636 1.39886 1.31815 1.36723 1.36148C1.35253 1.38162 1.33551 1.4115 1.33246 1.43592C1.32905 1.4632 1.3258 1.492 1.32182 1.51984C1.31365 1.57707 1.28101 1.63092 1.28101 1.68998C1.28101 1.72754 1.28101 1.76509 1.28101 1.80265C1.28101 1.83124 1.26927 1.84752 1.2652 1.87392C1.26296 1.88852 1.2574 1.90238 1.25514 1.91703C1.25176 1.939 1.23341 1.9539 1.22669 1.9748C1.22163 1.99053 1.22331 2.01313 1.21347 2.02624C1.20351 2.03952 1.20047 2.05163 1.19565 2.06706C1.18329 2.10661 1.17812 2.14993 1.1603 2.18719C1.14038 2.22884 1.11204 2.26283 1.09995 2.30819C1.095 2.32674 1.08597 2.33738 1.07724 2.35417C1.0693 2.36945 1.07017 2.38685 1.06287 2.40217C1.04988 2.42946 1.03109 2.45172 1.02781 2.48293C1.02615 2.49865 1.02115 2.51114 1.01718 2.52604C1.00658 2.56576 0.992953 2.60547 0.980388 2.64473C0.962232 2.70147 0.923926 2.75106 0.919172 2.81286C0.915453 2.86121 0.910996 2.90957 0.905951 2.958C0.901189 3.00372 0.879372 3.04074 0.870313 3.08503C0.866079 3.10573 0.862577 3.12376 0.849333 3.14079C0.838661 3.15451 0.83702 3.17493 0.825766 3.18994C0.788211 3.24001 0.735188 3.26764 0.685226 3.30317C0.660222 3.32095 0.630207 3.34519 0.62401 3.37617" stroke="white" stroke-linecap="round"/>
</svg>
