<svg width="3" height="4" viewBox="0 0 3 4" fill="none" xmlns="http://www.w3.org/2000/svg">
<path d="M2.07784 0.62401C2.07552 0.678561 2.05343 0.731865 2.04163 0.784955C2.03536 0.813185 2.03144 0.842766 2.02151 0.870026C2.01368 0.891531 2.00012 0.910383 1.99622 0.933254C1.99182 0.959052 1.979 0.978142 1.97323 1.00281C1.96771 1.02638 1.9699 1.0501 1.96805 1.07408C1.96011 1.17742 1.96403 1.28192 1.96403 1.38563C1.96403 1.40792 1.96706 1.43324 1.96288 1.45518C1.95723 1.48486 1.94294 1.50911 1.93299 1.53737C1.91305 1.59405 1.85855 1.64219 1.8462 1.70119C1.82646 1.79548 1.78718 1.88627 1.74446 1.97422C1.71704 2.03067 1.70534 2.09655 1.67433 2.15126C1.63591 2.21906 1.60614 2.30211 1.54816 2.35704C1.51962 2.38408 1.50453 2.43031 1.47918 2.46051C1.45636 2.48771 1.42706 2.50836 1.4036 2.53495C1.39378 2.54607 1.38749 2.55986 1.37744 2.57145C1.36815 2.58217 1.36541 2.59887 1.36422 2.61254C1.36272 2.62982 1.35411 2.63554 1.34928 2.65163C1.33748 2.69095 1.34023 2.72651 1.31536 2.76286C1.29633 2.79067 1.28229 2.82998 1.25788 2.8531C1.22622 2.8831 1.2153 2.93102 1.18402 2.96404C1.16302 2.98621 1.15741 3.01843 1.1389 3.04279C1.11478 3.07452 1.10451 3.1124 1.07912 3.14395C1.03924 3.1935 0.993669 3.24447 0.943753 3.2842C0.933023 3.29274 0.910786 3.31927 0.895757 3.31927C0.865113 3.31927 0.842084 3.24702 0.833678 3.22557C0.814189 3.17584 0.808614 3.12253 0.800052 3.07009C0.796257 3.04685 0.776527 3.00136 0.797753 2.98013C0.824277 2.95361 0.843376 2.92288 0.867592 2.89564C0.889807 2.87064 0.922311 2.85802 0.942891 2.83269C0.967675 2.80219 0.975678 2.77086 0.993474 2.73527C1.00352 2.71518 1.00283 2.69247 1.01244 2.67204C1.02305 2.64949 1.03852 2.62186 1.04319 2.59731C1.04726 2.57597 1.06031 2.54503 1.07136 2.52661C1.09079 2.49424 1.11307 2.46331 1.12999 2.42947C1.13698 2.4155 1.13404 2.40156 1.13746 2.38693C1.14182 2.3683 1.15411 2.35205 1.1593 2.3329C1.18096 2.25306 1.23133 2.18618 1.25415 2.10758C1.26311 2.07671 1.28176 2.05262 1.29036 2.01963C1.29587 1.99853 1.31106 1.98375 1.31623 1.96215C1.31943 1.94874 1.32415 1.93266 1.33002 1.92019C1.34307 1.89246 1.34167 1.8596 1.34727 1.82937C1.35192 1.80422 1.361 1.77929 1.36796 1.75465C1.37533 1.72855 1.37553 1.70166 1.38233 1.67533C1.3899 1.646 1.3865 1.61477 1.39095 1.58508C1.39466 1.56038 1.40581 1.51687 1.42084 1.49714C1.44856 1.46076 1.44883 1.39372 1.4651 1.35114C1.48189 1.30719 1.48493 1.25908 1.50246 1.21491C1.51248 1.18966 1.51393 1.16303 1.52431 1.13788C1.5337 1.11511 1.54754 1.08168 1.545 1.05626C1.54481 1.05437 1.5089 1.10856 1.50189 1.11949C1.49193 1.13501 1.48883 1.15365 1.48062 1.17007C1.47189 1.18753 1.45919 1.20256 1.44958 1.21951C1.42301 1.26636 1.39901 1.31815 1.36738 1.36148C1.35269 1.38162 1.33566 1.4115 1.33261 1.43592C1.3292 1.4632 1.32595 1.492 1.32197 1.51984C1.3138 1.57707 1.28116 1.63092 1.28116 1.68998C1.28116 1.72754 1.28116 1.76509 1.28116 1.80265C1.28116 1.83124 1.26942 1.84752 1.26536 1.87392C1.26311 1.88852 1.25755 1.90238 1.2553 1.91703C1.25192 1.939 1.23356 1.9539 1.22684 1.9748C1.22179 1.99053 1.22346 2.01313 1.21362 2.02624C1.20366 2.03952 1.20063 2.05163 1.1958 2.06706C1.18345 2.10661 1.17828 2.14993 1.16045 2.18719C1.14053 2.22884 1.11219 2.26283 1.1001 2.30819C1.09515 2.32674 1.08612 2.33738 1.0774 2.35417C1.06945 2.36945 1.07032 2.38685 1.06303 2.40217C1.05003 2.42946 1.03125 2.45172 1.02796 2.48293C1.02631 2.49865 1.0213 2.51114 1.01733 2.52604C1.00674 2.56576 0.993105 2.60547 0.980541 2.64473C0.962384 2.70147 0.924078 2.75106 0.919324 2.81286C0.915605 2.86121 0.911148 2.90957 0.906104 2.958C0.901341 3.00372 0.879525 3.04074 0.870466 3.08503C0.866232 3.10573 0.86273 3.12376 0.849485 3.14079C0.838814 3.15451 0.837173 3.17493 0.825918 3.18994C0.788364 3.24001 0.735341 3.26764 0.685379 3.30317C0.660374 3.32095 0.630359 3.34519 0.624162 3.37617" stroke="white" stroke-linecap="round"/>
</svg>
