<svg width="20" height="20" viewBox="0 0 20 20" fill="none" xmlns="http://www.w3.org/2000/svg">
<path d="M9.9992 1.83329C9.75009 1.83145 9.50558 1.90032 9.29405 2.0319C9.08252 2.16348 8.91266 2.35236 8.80419 2.57662L6.95253 6.32995L2.80919 6.93162C2.56275 6.96713 2.33117 7.07094 2.14069 7.23129C1.9502 7.39163 1.80842 7.60212 1.73141 7.83889C1.65439 8.07567 1.64521 8.32929 1.70491 8.57101C1.76461 8.81274 1.8908 9.03292 2.06919 9.20662L5.06919 12.1283L4.36086 16.255C4.31873 16.5001 4.346 16.7521 4.43959 16.9825C4.53318 17.213 4.68936 17.4126 4.89047 17.559C5.09159 17.7053 5.32963 17.7925 5.57769 17.8106C5.82574 17.8287 6.07393 17.7771 6.29419 17.6616L9.9992 15.7133V1.83329Z" fill="#FFAD33"/>
<path opacity="0.25" d="M10.0007 1.83595C10.2498 1.83404 10.5007 2.00001 10.5007 2.00001C10.5007 2.00001 11.0872 2.20807 11.1957 2.44195L13.0474 6.35634L17.1908 6.98383C17.4372 7.02086 17.6688 7.12912 17.8593 7.29635C18.0498 7.46358 18.1916 7.68309 18.2686 7.93003C18.3456 8.17697 18.3548 8.44147 18.2951 8.69357C18.2354 8.94567 18.1092 9.1753 17.9308 9.35645L14.9307 12.4035L15.6391 16.7072C15.6812 16.9629 15.654 17.2257 15.5604 17.466C15.4668 17.7064 15.3106 17.9146 15.1095 18.0672C14.9083 18.2198 14.6703 18.3107 14.4222 18.3296C14.1742 18.3486 13.926 18.2947 13.7057 18.1743L10.0007 16.1423V1.83595Z" fill="black"/>
</svg>
