<svg width="19" height="19" viewBox="0 0 19 19" fill="none" xmlns="http://www.w3.org/2000/svg">
<path d="M17.5598 6.77318C18.1999 6.77318 18.4729 7.58681 17.9625 7.97291L14.5432 10.5593C13.8021 11.1198 13.4914 12.0843 13.7658 12.972L15.0524 17.1336C15.2445 17.7549 14.5251 18.2561 14.0089 17.8606L10.8641 15.4515C10.0719 14.8446 8.97118 14.8446 8.17901 15.4515L5.01753 17.8734C4.50202 18.2683 3.78334 17.7691 3.97346 17.1482L5.24226 13.0043C5.51219 12.1227 5.20581 11.1662 4.47389 10.6054L1.03427 7.97043C0.527839 7.58247 0.8022 6.77318 1.44016 6.77318H5.54518C6.51325 6.77318 7.36839 6.14248 7.65432 5.2176L8.88391 1.24041C9.07777 0.613352 9.96535 0.613356 10.1592 1.24041L11.3888 5.2176C11.6747 6.14248 12.5299 6.77318 13.4979 6.77318H17.5598Z" stroke="#FAFAFA" stroke-width="1.5"/>
</svg>
