<svg width="22" height="22" viewBox="0 0 22 22" fill="none" xmlns="http://www.w3.org/2000/svg">
<path d="M9.52084 5.10673L6.05944 1.11124C5.66041 0.650807 4.92884 0.652854 4.46534 1.11737L1.61887 3.96896C0.771686 4.81717 0.529194 6.07669 1.01929 7.08657C3.94722 13.1488 8.83638 18.0448 14.8945 20.9813C15.9034 21.4714 17.1619 21.2289 18.0091 20.3807L20.8822 17.5025C21.3477 17.0369 21.3487 16.3013 20.8842 15.9022L16.8734 12.4592C16.4539 12.0991 15.8021 12.1462 15.3816 12.5677L13.986 13.9654C13.9145 14.0402 13.8205 14.0896 13.7183 14.1059C13.616 14.1221 13.5113 14.1044 13.4202 14.0554C11.1389 12.7417 9.24662 10.847 7.93594 8.56403C7.88686 8.47271 7.86909 8.36781 7.88535 8.26542C7.90161 8.16303 7.95102 8.0688 8.02598 7.99719L9.4175 6.60465C9.83905 6.18106 9.88509 5.52623 9.52084 5.1057V5.10673Z" stroke="white" stroke-width="1.5" stroke-linecap="round" stroke-linejoin="round"/>
</svg>
