<svg width="3" height="5" viewBox="0 0 3 5" fill="none" xmlns="http://www.w3.org/2000/svg">
<path d="M1.79032 0.507987C1.72075 0.647134 1.653 0.782791 1.58163 0.91905C1.54049 0.997579 1.54715 1.09635 1.50416 1.17517C1.4587 1.25851 1.39573 1.28179 1.3919 1.39652C1.38956 1.46694 1.3919 1.53788 1.3919 1.60837C1.3919 1.97166 1.42412 2.34113 1.25119 2.65816C1.20855 2.73634 1.201 2.84815 1.17689 2.93326C1.15531 3.00941 1.08706 3.08993 1.07886 3.16092C1.06591 3.27315 0.93865 3.44513 0.895466 3.55618C0.853369 3.66443 0.868233 3.67984 0.794282 3.77119C0.720493 3.86234 0.641747 3.95734 0.57294 4.05261C0.490998 4.16607 0.5097 4.35737 0.5097 4.49213" stroke="white" stroke-linecap="round"/>
</svg>
